<svg width="264" height="241" viewBox="0 0 264 241" fill="none" xmlns="http://www.w3.org/2000/svg">
<path d="M132 0L134.24 104.798L166.164 4.09925L138.567 105.855L198 16.1177L142.446 107.896L225.338 35.2362L145.614 110.783L246.315 60.1519L147.854 114.319L259.502 89.1669L149.013 118.262L264 120.304L149.013 122.345L259.502 151.441L147.854 126.289L246.315 180.456L145.614 129.825L225.338 205.371L142.446 132.711L198 224.49L138.567 134.753L166.164 236.508L134.24 135.809L132 240.608L129.76 135.809L97.8359 236.508L125.433 134.753L66 224.49L121.554 132.711L38.6619 205.371L118.386 129.825L17.6846 180.456L116.146 126.289L4.49779 151.441L114.987 122.345L0 120.304L114.987 118.262L4.49779 89.1669L116.146 114.319L17.6846 60.1519L118.386 110.783L38.6619 35.2362L121.554 107.896L66 16.1177L125.433 105.855L97.8359 4.09925L129.76 104.798L132 0Z" fill="black"/>
</svg>
