<svg width="107" height="106" viewBox="0 0 107 106" fill="none" xmlns="http://www.w3.org/2000/svg">
<path d="M43.103 3.83968L43.8611 6.95453L44.4243 6.81746L43.0553 1.19265L42.4921 1.32972L42.8982 2.99839L42.0661 4.51182L39.3008 2.10644L38.6124 2.27397L41.78 5.0307L40.2387 7.83617L41.0104 7.64833L43.103 3.83968Z" fill="black"/>
<path d="M32.7836 4.39596L32.0702 4.67417L34.1737 10.0675L34.7204 9.85428L32.8613 5.08763L37.9937 8.57762L38.7137 8.2968L36.6102 2.90349L36.0636 3.1167L37.9226 7.88335L32.7836 4.39596Z" fill="black"/>
<path d="M30.5977 12.0741C31.2583 11.7013 31.7203 11.1367 31.9014 10.4676C32.0892 9.73724 31.9525 8.92702 31.4918 8.1106C30.5917 6.51515 29.0829 6.01076 27.637 6.82654C26.4903 7.47354 25.6528 8.85803 26.7429 10.79C27.6571 12.4104 29.1581 12.8863 30.5977 12.0741ZM27.9253 7.33759C28.8415 6.82069 30.1017 6.84088 30.9808 8.39894C31.8352 9.91337 31.2255 11.0461 30.3094 11.563C29.3995 12.0764 28.1463 12.0687 27.2601 10.4982C26.4971 9.14577 26.7599 7.99513 27.9253 7.33759Z" fill="black"/>
<path d="M21.4033 18.5304L19.3581 13.6013L23.7651 16.6144L24.093 16.3484L24.4209 16.0825L22.3757 11.1534L26.7826 14.1665L27.2661 13.7743L22.2576 10.3831L21.6518 10.8744L23.6692 15.8261L19.24 12.831L18.6287 13.3269L20.9143 18.9271L21.4033 18.5304Z" fill="black"/>
<path d="M11.219 21.5089L10.9033 21.9429L13.8627 26.5726L9.72908 23.5576L9.37977 24.0379L14.0616 27.4427L14.6172 26.6788L11.7303 22.217L16.873 23.5769L17.4244 22.8187L12.7425 19.4139L12.3974 19.8885L16.5352 22.8977L11.219 21.5089Z" fill="black"/>
<path d="M12.1813 31.0983C12.5304 30.4249 12.6083 29.6995 12.3939 29.0402C12.1515 28.3262 11.5938 27.7227 10.7616 27.2913C9.13527 26.4482 7.59633 26.8513 6.83226 28.3252C6.22627 29.4941 6.28263 31.1112 8.252 32.1321C9.90373 32.9884 11.4205 32.5658 12.1813 31.0983ZM7.35319 28.5952C7.83732 27.6614 8.90332 26.9889 10.4915 27.8122C12.0353 28.6125 12.1445 29.8943 11.6604 30.8282C11.1796 31.7557 10.1263 32.4348 8.52535 31.6049C7.14679 30.8902 6.73732 29.7832 7.35319 28.5952Z" fill="black"/>
<path d="M6.16772 36.6088L6.39346 35.9752L3.53895 36.4395L3.3084 37.0866L6.16772 36.6088ZM7.27234 38.3697C8.41826 38.778 9.20067 37.8185 9.44563 37.131L10.241 34.8772L4.78773 32.9343L4.58841 33.4938L6.97463 34.3439L6.82574 34.7619L6.16772 36.6088C6.0843 37.0349 6.12641 37.9615 7.27234 38.3697ZM6.88617 36.3406L7.52737 34.5409L9.48219 35.2373L8.84098 37.0371C8.63205 37.6235 8.05571 38.0259 7.46926 37.817C6.77497 37.5696 6.6196 37.0889 6.88617 36.3406Z" fill="black"/>
<path d="M7.68369 40.9536L6.96934 44.1815L7.52129 44.3036L8.36089 40.5099L2.70864 39.259L1.86904 43.0527L2.414 43.1733L3.12836 39.9455L5.35013 40.4372L4.73468 43.1519L5.28663 43.2741L5.88811 40.5562L7.68369 40.9536Z" fill="black"/>
<path d="M3.9085 52.6155L4.47364 52.629L4.53979 49.8605L3.97465 49.847L3.9085 52.6155Z" fill="black"/>
<path d="M4.09531 59.5175L7.25329 58.9659L7.15356 58.3949L1.45088 59.3909L1.5506 59.9619L3.24238 59.6664L4.69779 60.5963L2.11571 63.1974L2.2376 63.8953L5.19672 60.9159L7.89472 62.6384L7.75806 61.856L4.09531 59.5175Z" fill="black"/>
<path d="M3.97064 69.848L4.20132 70.5781L9.72133 68.834L9.54454 68.2745L4.66592 69.816L8.48597 64.9242L8.25313 64.1873L2.73312 65.9315L2.9099 66.491L7.78853 64.9495L3.97064 69.848Z" fill="black"/>
<path d="M11.4886 72.5355C11.1602 71.8518 10.6272 71.3537 9.97139 71.1289C9.25498 70.8936 8.43753 70.9767 7.59257 71.3826C5.94137 72.1759 5.33882 73.6482 6.05772 75.1447C6.62788 76.3315 7.95428 77.2582 9.95379 76.2976C11.6308 75.4919 12.2044 74.0255 11.4886 72.5355ZM6.58662 74.8906C6.13111 73.9424 6.23416 72.6862 7.84667 71.9115C9.41403 71.1586 10.5042 71.8415 10.9597 72.7896C11.4122 73.7313 11.322 74.9813 9.6966 75.7622C8.29694 76.4346 7.16608 76.0967 6.58662 74.8906Z" fill="black"/>
<path d="M17.3289 82.1338L12.276 83.8503L15.5725 79.6511L15.3287 79.3065L15.0848 78.9618L10.0319 80.6783L13.3284 76.4791L12.9688 75.9709L9.25547 80.7455L9.70594 81.3823L14.7795 79.6949L11.4996 83.9175L11.9542 84.5601L17.6926 82.6479L17.3289 82.1338Z" fill="black"/>
<path d="M19.6283 92.4922L20.0406 92.8357L24.8549 90.1873L21.5745 94.1136L22.0308 94.4938L25.7362 90.046L25.0105 89.4415L20.3685 92.0285L22.0637 86.9864L21.3435 86.3864L17.6381 90.8342L18.0889 91.2098L21.3638 87.2788L19.6283 92.4922Z" fill="black"/>
<path d="M29.2602 92.1638C28.6113 91.7712 27.8926 91.6458 27.2207 91.8164C26.4922 92.0113 25.8534 92.528 25.3681 93.3301C24.4199 94.8974 24.7209 96.4595 26.1413 97.3189C27.2678 98.0005 28.8851 98.0506 30.0334 96.1527C30.9965 94.5608 30.6745 93.0195 29.2602 92.1638ZM26.445 96.8169C25.545 96.2724 24.9441 95.1644 25.8702 93.6338C26.7703 92.1461 28.0565 92.1214 28.9565 92.6659C29.8504 93.2067 30.4587 94.3024 29.5252 95.8452C28.7214 97.1738 27.5899 97.5096 26.445 96.8169Z" fill="black"/>
<path d="M34.3629 98.5265L33.7455 98.2596L34.021 101.138L34.6515 101.411L34.3629 98.5265ZM36.1926 97.5401C36.6753 96.4235 35.7694 95.5797 35.0995 95.29L32.9029 94.3481L30.6055 99.6618L31.1507 99.8975L32.156 97.5724L32.5632 97.7484L34.3629 98.5265C34.7825 98.6378 35.7098 98.6567 36.1926 97.5401ZM34.1425 97.792L32.3888 97.0338L33.2123 95.129L34.966 95.8872C35.5375 96.1343 35.9011 96.7358 35.654 97.3073C35.3615 97.9838 34.8716 98.1072 34.1425 97.792Z" fill="black"/>
<path d="M38.7981 97.3002L41.972 98.2254L42.1302 97.6826L38.3998 96.5953L36.7798 102.153L40.5102 103.24L40.6663 102.705L37.4925 101.779L38.1293 99.5948L40.7976 100.387L40.9558 99.8447L38.2834 99.0658L38.7981 97.3002Z" fill="black"/>
<path d="M50.1865 101.834L50.2372 101.271L47.479 101.023L47.4284 101.586L50.1865 101.834Z" fill="black"/>
<path d="M57.0874 102.101L56.7448 98.9136L56.1685 98.9756L56.7872 104.731L57.3635 104.669L57.1799 102.962L58.2035 101.571L60.6292 104.318L61.3335 104.243L58.5553 101.094L60.4516 98.5151L59.6618 98.6L57.0874 102.101Z" fill="black"/>
<path d="M67.388 102.905L68.1316 102.722L66.7544 97.0996L66.1844 97.2392L67.4017 102.209L62.7718 98.0751L62.0212 98.2589L63.3985 103.882L63.9684 103.742L62.7512 98.7727L67.388 102.905Z" fill="black"/>
<path d="M70.5626 95.5794C69.8588 95.8622 69.3267 96.3613 69.0593 97.0009C68.7773 97.7002 68.8065 98.5214 69.1559 99.3912C69.8389 101.091 71.2684 101.789 72.8088 101.17C74.0306 100.679 75.0425 99.4168 74.2155 97.3584C73.5219 95.632 72.0964 94.9632 70.5626 95.5794ZM72.5901 100.626C71.614 101.018 70.3673 100.832 69.7004 99.1725C69.0522 97.559 69.8053 96.516 70.7814 96.1239C71.7508 95.7344 72.9922 95.9066 73.6644 97.5798C74.2433 99.0207 73.8317 100.127 72.5901 100.626Z" fill="black"/>
<path d="M80.5257 90.3858L81.9061 95.5407L77.9328 91.9751L77.5729 92.1957L77.2129 92.4164L78.5933 97.5713L74.62 94.0057L74.0893 94.331L78.6093 98.3504L79.2743 97.9428L77.9244 92.7692L81.9221 96.3199L82.5931 95.9085L81.0625 90.0567L80.5257 90.3858Z" fill="black"/>
<path d="M91.0122 88.771L91.3821 88.3822L89.0561 83.4041L92.7581 86.9356L93.1675 86.5053L88.9731 82.5153L88.3221 83.1997L90.5982 88.0019L85.6786 85.9787L85.0325 86.6579L89.2268 90.6478L89.6313 90.2227L85.9243 86.6963L91.0122 88.771Z" fill="black"/>
<path d="M91.3177 79.1382C90.8832 79.7599 90.7108 80.4688 90.8368 81.1505C90.9834 81.8902 91.457 82.5616 92.2253 83.0986C93.7269 84.1479 95.3055 83.9502 96.2564 82.5895C97.0106 81.5102 97.167 79.8997 95.3487 78.6291C93.8237 77.5634 92.2645 77.7833 91.3177 79.1382ZM95.7754 82.2533C95.1729 83.1156 94.0278 83.6423 92.5615 82.6176C91.1361 81.6216 91.1961 80.3365 91.7986 79.4743C92.3971 78.6179 93.5304 78.083 95.0085 79.1159C96.2813 80.0054 96.5419 81.1565 95.7754 82.2533Z" fill="black"/>
<path d="M98.003 74.4638L97.696 75.0624L100.587 74.9768L100.9 74.3656L98.003 74.4638ZM97.1391 72.5732C96.0567 72.018 95.1551 72.8665 94.822 73.5159L93.7376 75.6458L98.8887 78.2877L99.1597 77.7592L96.9057 76.6032L97.1082 76.2084L98.003 74.4638C98.1416 74.0524 98.2215 73.1283 97.1391 72.5732ZM97.2556 74.6354L96.3836 76.3354L94.5372 75.3884L95.4091 73.6884C95.6932 73.1344 96.3174 72.8112 96.8713 73.0953C97.5271 73.4317 97.618 73.9286 97.2556 74.6354Z" fill="black"/>
<path d="M97.0719 69.9582L98.2038 66.852L97.6726 66.6585L96.3423 70.3092L101.781 72.2913L103.112 68.6406L102.587 68.4495L101.455 71.5556L99.3174 70.7765L100.284 68.1661L99.7528 67.9725L98.7997 70.5879L97.0719 69.9582Z" fill="black"/>
<path d="M102.345 58.8926L101.786 58.805L101.357 61.5409L101.915 61.6285L102.345 58.8926Z" fill="black"/>
<path d="M103.065 52.0261L99.8624 52.1584L99.8863 52.7375L105.67 52.4987L105.646 51.9196L103.931 51.9904L102.61 50.8776L105.511 48.6379L105.482 47.9301L102.157 50.4952L99.7086 48.4334L99.7414 49.227L103.065 52.0261Z" fill="black"/>
<path d="M104.545 41.8003L104.412 41.0463L98.7113 42.0507L98.8131 42.6286L103.852 41.7409L99.4227 46.0888L99.5568 46.8499L105.258 45.8455L105.156 45.2676L100.117 46.1553L104.545 41.8003Z" fill="black"/>
<path d="M97.4439 38.1507C97.6798 38.8716 98.1428 39.4353 98.7634 39.7443C99.4427 40.0716 100.264 40.0965 101.155 39.8051C102.896 39.2354 103.687 37.8549 103.17 36.2771C102.761 35.0257 101.568 33.9329 99.4593 34.6227C97.6911 35.2012 96.9299 36.5796 97.4439 38.1507ZM102.613 36.4595C102.94 37.4593 102.673 38.6911 100.972 39.2474C99.3198 39.7881 98.3287 38.9679 98.0016 37.9682C97.6767 36.9752 97.9302 35.7479 99.644 35.1872C101.12 34.7043 102.197 35.1878 102.613 36.4595Z" fill="black"/>
<path d="M92.9168 27.8677L98.1513 26.8294L94.3321 30.5595L94.5286 30.9332L94.7251 31.3069L99.9596 30.2686L96.1404 33.9987L96.4301 34.5497L100.738 30.3039L100.375 29.6135L95.1239 30.6202L98.9299 26.8647L98.5635 26.168L92.6237 27.3104L92.9168 27.8677Z" fill="black"/>
<path d="M91.9929 17.2982L91.6292 16.9036L86.5089 18.8971L90.2764 15.4354L89.8739 14.9986L85.6166 18.9214L86.2567 19.616L91.1982 17.6607L88.8558 22.4367L89.491 23.126L93.7482 19.2032L93.3506 18.7717L89.588 22.2387L91.9929 17.2982Z" fill="black"/>
<path d="M82.4013 16.3593C82.9931 16.8338 83.6891 17.0524 84.3776 16.9715C85.1253 16.8739 85.8265 16.4455 86.4128 15.7141C87.5586 14.2848 87.4653 12.6967 86.17 11.6583C85.1427 10.8348 83.546 10.5727 82.1585 12.3035C80.9947 13.7551 81.1116 15.3254 82.4013 16.3593ZM85.803 12.1161C86.6237 12.7741 87.074 13.9513 85.955 15.3471C84.8674 16.7038 83.589 16.5595 82.7683 15.9015C81.9532 15.248 81.4939 14.082 82.6219 12.675C83.5931 11.4635 84.7589 11.2791 85.803 12.1161Z" fill="black"/>
<path d="M78.1787 9.38143L78.7557 9.72711L78.8605 6.83697L78.2712 6.48394L78.1787 9.38143ZM76.2353 10.1191C75.6101 11.1626 76.3974 12.1181 77.0236 12.4932L79.0775 13.7153L82.0525 8.74923L81.543 8.444L80.2412 10.617L79.8606 10.389L78.1787 9.38143C77.7773 9.21603 76.8605 9.07553 76.2353 10.1191ZM78.3007 10.1385L79.9397 11.1204L78.8732 12.9006L77.2342 11.9187C76.7002 11.5988 76.4187 10.9547 76.7387 10.4206C77.1174 9.78836 77.6193 9.73034 78.3007 10.1385Z" fill="black"/>
<path d="M73.6226 10.0137L70.5977 8.67985L70.3696 9.19711L73.9249 10.7648L76.2605 5.46781L72.7052 3.90016L72.48 4.41087L75.505 5.74467L74.5869 7.82678L72.0457 6.69064L71.8176 7.20789L74.3646 8.33094L73.6226 10.0137Z" fill="black"/>
<path d="M62.9266 4.02367L62.8025 4.57518L65.5042 5.18324L65.6283 4.63173L62.9266 4.02367Z" fill="black"/>
</svg>
