<svg width="52" height="22" viewBox="0 0 52 22" fill="none" xmlns="http://www.w3.org/2000/svg">
<path fill-rule="evenodd" clip-rule="evenodd" d="M46.2812 12.96C45.5516 12.4979 44.8437 11.9711 44.193 11.3608C42.0995 9.39733 40.6177 6.59085 40.8031 2.38026L41.8022 2.42425C41.6299 6.33588 42.9907 8.86222 44.8771 10.6314C46.7903 12.4258 49.2636 13.4622 51.3693 14.3273L51.1783 14.792L51.1518 15.2893C48.8439 15.1662 46.1198 15.0388 43.6125 15.7915C41.1402 16.5338 38.8684 18.1358 37.4611 21.5347L36.5372 21.1521C38.0694 17.4518 40.5907 15.6547 43.3249 14.8338C44.5803 14.4568 45.8783 14.2867 47.1376 14.2248L0.338168 1.68399L0.597005 0.718073L46.2812 12.96Z" fill="black"/>
</svg>
